<svg xmlns="http://www.w3.org/2000/svg" version="1.1" viewBox="-18 0 874.5 169.1" role="presentation" focusable="false" aria-labelledby="site-logo-title site-logo-desc">
  <title id="site-logo-title">Codepunkt</title>
  <desc id="site-logo-desc">Site logo</desc>
  <g class="wordmark" transform="translate(30 0)">
    <path d="M187.6 129.6c-11.3 0-20.7-3.8-28.3-11.4-7.6-7.6-11.3-17-11.3-28.2s3.8-20.6 11.3-28.2 17-11.4 28.3-11.4c7.3 0 13.9 1.8 19.9 5.2s10.6 8.2 13.6 14.1l-16.6 9.8c-1.5-3.1-3.8-5.6-6.8-7.3-3.1-1.8-6.5-2.7-10.3-2.7-5.8 0-10.6 1.9-14.4 5.8-3.8 3.8-5.7 8.8-5.7 14.8 0 5.9 1.9 10.8 5.7 14.6 3.8 3.8 8.6 5.8 14.4 5.8 3.9 0 7.4-.9 10.4-2.6 3.1-1.8 5.3-4.2 6.8-7.3l16.8 9.6c-3.3 5.9-7.9 10.6-13.9 14.2-6 3.4-12.6 5.2-19.9 5.2z" class="st4"/>
    <path d="M286.7 118.1c-7.7 7.7-17.1 11.5-28.2 11.5s-20.5-3.8-28.1-11.5-11.5-17-11.5-28.1 3.8-20.5 11.5-28.1 17-11.5 28.1-11.5c11.1 0 20.5 3.8 28.2 11.5s11.5 17 11.5 28.1-3.8 20.5-11.5 28.1zM244 104.8c3.9 3.9 8.7 5.8 14.5 5.8s10.6-1.9 14.5-5.8 5.9-8.8 5.9-14.8-2-10.9-5.9-14.8-8.8-5.8-14.5-5.8c-5.8 0-10.6 1.9-14.5 5.8-3.9 3.9-5.8 8.8-5.8 14.8s2 10.9 5.8 14.8zM360.1 22.5h19.4v105h-19.4v-8.8c-5.7 7.3-13.8 11-24.3 11-10.1 0-18.7-3.8-25.9-11.5s-10.7-17-10.7-28.1 3.6-20.5 10.7-28.1 15.8-11.5 25.9-11.5c10.5 0 18.6 3.7 24.3 11v-39zm-35.6 82.7c4 3.9 8.9 5.9 14.9 5.9s11-2 14.9-5.9c3.9-3.9 5.9-9 5.9-15.2s-2-11.3-5.9-15.2-8.9-5.9-14.9-5.9-11 2-14.9 5.9-5.9 9-5.9 15.2c-.1 6.2 1.9 11.3 5.9 15.2zM405.1 97.9c2.6 9.4 9.6 14.1 21.1 14.1 7.4 0 13-2.5 16.8-7.5l15.6 9c-7.4 10.7-18.3 16-32.7 16-12.4 0-22.4-3.8-29.9-11.2s-11.2-16.9-11.2-28.3c0-11.3 3.7-20.7 11.1-28.3 7.4-7.5 16.9-11.3 28.5-11.3 11 0 20.1 3.8 27.2 11.4s10.7 17 10.7 28.2c0 2.5-.2 5.2-.8 7.9h-56.4zm-.3-15H443c-1.1-5.1-3.4-8.9-6.8-11.4-3.5-2.5-7.4-3.8-11.8-3.8-5.2 0-9.5 1.3-12.9 4-3.3 2.7-5.6 6.5-6.7 11.2zM511.3 50.4c10.1 0 18.7 3.8 25.9 11.5 7.2 7.7 10.7 17 10.7 28.1s-3.6 20.5-10.7 28.1c-7.2 7.7-15.8 11.5-25.9 11.5-10.5 0-18.6-3.7-24.3-10.9v38.9h-19.4v-105H487v8.8c5.7-7.4 13.8-11 24.3-11zm-18.4 54.8c3.9 3.9 8.9 5.9 14.9 5.9s11-2 14.9-5.9c4-3.9 5.9-9 5.9-15.2s-2-11.3-5.9-15.2-8.9-5.9-14.9-5.9-11 2-14.9 5.9-5.9 9-5.9 15.2c0 6.2 2 11.3 5.9 15.2zM602.9 52.5h19.3v75h-19.3v-8.4c-4.7 7-12.2 10.5-22.3 10.5-8.2 0-15-2.8-20.3-8.2-5.3-5.5-8-13.1-8-22.8V52.5h19.3v43.7c0 5 1.3 8.8 4 11.5 2.7 2.7 6.3 4 10.8 4 5 0 9-1.6 12-4.7s4.5-7.8 4.5-13.9V52.5zM673.2 50.4c8.2 0 15 2.8 20.3 8.2 5.3 5.5 8 13.1 8 22.8v46.1h-19.4V83.8c0-5-1.3-8.8-4-11.5s-6.3-4-10.8-4c-5 0-9 1.6-12 4.7s-4.5 7.8-4.5 13.9v40.5h-19.4v-75h19.3v8.4c4.8-6.9 12.3-10.4 22.5-10.4zM779.3 127.5h-22.5l-27.3-34.1v34.1h-19.3v-105h19.3v63.1l25.8-33.1h23.1l-30.2 37 31.1 38z" class="st4"/>
    <path d="M826.1 71.1h-17v31.2c0 2.6.7 4.5 2 5.7s3.2 1.9 5.7 2 5.6.1 9.3-.1v17.6c-13.3 1.5-22.7.2-28.1-3.8-5.5-4-8.2-11.2-8.2-21.4V71.1h-13V52.5h13V37.3l19.3-5.9v21h17v18.7z" class="st4"/>
  </g>
  <g class="logomark">
    <circle fill="transparent" stroke="black" stroke-width="7" cx="63.5" cy="81.5" r="78" />
    <path fill="#333" d="M67.5 81.2c-24.5 0-45.6-15.6-55-37.9C4.7 54 0 67.3 0 81.7c0 21 22.9 64 63.5 64.3 28.8.2 50.9-21.1 58.4-39 5.1-12.1 5.1-25.3 5.1-25.3 0-9.1-1.9-16.2-3.1-19.8-1.3-4-2.9-7.8-4.9-11.4-10.6 18.4-29.7 30.7-51.5 30.7z"/>
    <path d="M121.9 107c-2.6 1-39.9 14.6-67.8-7.5-3-2.4-25.7-20.9-22.4-45.8 1.8-13.3 10.1-22.3 11.9-24.2C53.6 19 65.8 17.3 65.7 17c-.2-.6-34.3 1.8-53.2 26.4C.8 58.7 0 76 0 81.7c0 5.8.8 24.3 14.5 40.9 2 2.5 20 23.5 49 23.4 24.5-.1 47.3-15.4 58.4-39z"/>
  </g>
</svg>
