<?xml version="1.0" encoding="UTF-8" standalone="no"?>
<!-- Created with Inkscape (http://www.inkscape.org/) by wikipedia user de:Xato -->
<svg
   xmlns:svg="http://www.w3.org/2000/svg"
   xmlns="http://www.w3.org/2000/svg"
   version="1.0"
   width="470"
   height="360">
  <text
     x="-2.0101736"
     y="240.96298"
     id="text3247"
     xml:space="preserve"
     style="font-size:400px;font-style:normal;font-variant:normal;font-weight:normal;font-stretch:normal;fill:#000000;fill-opacity:1;stroke:none;stroke-width:1px;stroke-linecap:butt;stroke-linejoin:miter;stroke-opacity:1;font-family:DejaVu Sans;-inkscape-font-specification:DejaVu Sans"><tspan
       x="-2.0101736"
       y="240.96298"
       id="tspan3249">a</tspan></text>
  <path
     d="M 339.69704,244.50995 L 309.69704,244.50995 L 309.69704,242.50995 L 309.69704,240.50995 L 305.69704,240.50995 L 301.69704,240.50995 L 301.69704,238.50995 L 301.69704,236.50995 L 297.69704,236.50995 L 293.69704,236.50995 L 293.69704,234.50995 L 293.69704,232.50995 L 291.69704,232.50995 L 289.69704,232.50995 L 289.69704,230.50995 L 289.69704,228.50995 L 285.69704,228.50995 L 281.69704,228.50995 L 281.69704,224.50995 L 281.69704,220.50995 L 279.69704,220.50995 L 277.69704,220.50995 L 277.69704,218.50995 L 277.69704,216.50995 L 275.69704,216.50995 L 273.69704,216.50995 L 273.69704,212.50995 L 273.69704,208.50995 L 271.69704,208.50995 L 269.69704,208.50995 L 269.69704,202.50995 L 269.69704,196.50995 L 267.69704,196.50995 L 265.69704,196.50995 L 265.69704,176.50995 L 265.69704,156.50995 L 267.69704,156.50995 L 269.69704,156.50995 L 269.69704,150.50995 L 269.69704,144.50995 L 271.69704,144.50995 L 273.69704,144.50995 L 273.69704,140.50995 L 273.69704,136.50995 L 275.69704,136.50995 L 277.69704,136.50995 L 277.69704,134.50995 L 277.69704,132.50995 L 279.69704,132.50995 L 281.69704,132.50995 L 281.69704,128.50995 L 281.69704,124.50995 L 285.69704,124.50995 L 289.69704,124.50995 L 289.69704,122.50995 L 289.69704,120.50995 L 291.69704,120.50995 L 293.69704,120.50995 L 293.69704,118.50995 L 293.69704,116.50995 L 297.69704,116.50995 L 301.69704,116.50995 L 301.69704,114.50995 L 301.69704,112.50995 L 305.69704,112.50995 L 309.69704,112.50995 L 309.69704,110.50995 L 309.69704,108.50995 L 315.69704,108.50995 L 321.69704,108.50995 L 321.69704,106.50995 L 321.69704,104.50995 L 343.69704,104.50995 L 365.69704,104.50995 L 365.69704,102.50995 L 365.69704,100.50994 L 389.69704,100.50994 L 413.69704,100.50994 L 413.69704,90.509944 L 413.69704,80.509948 L 411.69704,80.509948 L 409.69704,80.509948 L 409.69704,76.509948 L 409.69704,72.509948 L 407.69704,72.509948 L 405.69704,72.509948 L 405.69704,68.509948 L 405.69704,64.509948 L 403.69704,64.509948 L 401.69704,64.509948 L 401.69704,62.509948 L 401.69704,60.509948 L 397.69704,60.509948 L 393.69704,60.509948 L 393.69704,58.509948 L 393.69704,56.509948 L 391.69704,56.509948 L 389.69704,56.509948 L 389.69704,54.509948 L 389.69704,52.509948 L 383.69704,52.509948 L 377.69704,52.509948 L 377.69704,50.509948 L 377.69704,48.509948 L 347.69704,48.509948 L 317.69704,48.509948 L 317.69704,50.509948 L 317.69704,52.509948 L 311.69704,52.509948 L 305.69704,52.509948 L 305.69704,54.509948 L 305.69704,56.509948 L 299.69704,56.509948 L 293.69704,56.509948 L 293.69704,58.509948 L 293.69704,60.509948 L 289.69704,60.509948 L 285.69704,60.509948 L 285.69704,62.509948 L 285.69704,64.509948 L 283.69704,64.509948 L 281.69704,64.509948 L 281.69704,48.509948 L 281.69704,32.509948 L 283.69704,32.509948 L 285.69704,32.509948 L 285.69704,30.509948 L 285.69704,28.509948 L 291.69704,28.509948 L 297.69704,28.509948 L 297.69704,26.509948 L 297.69704,24.509948 L 305.69704,24.509948 L 313.69704,24.509948 L 313.69704,22.509948 L 313.69704,20.509948 L 323.69704,20.509948 L 333.69704,20.509948 L 333.69704,18.509948 L 333.69704,16.509948 L 355.69704,16.509948 L 377.69704,16.509948 L 377.69704,18.509948 L 377.69704,20.509948 L 387.69704,20.509948 L 397.69704,20.509948 L 397.69704,22.509948 L 397.69704,24.509948 L 401.69704,24.509948 L 405.69704,24.509948 L 405.69704,26.509948 L 405.69704,28.509948 L 409.69704,28.509948 L 413.69704,28.509948 L 413.69704,30.509948 L 413.69704,32.509948 L 415.69704,32.509948 L 417.69704,32.509948 L 417.69704,34.509948 L 417.69704,36.509948 L 421.69704,36.509948 L 425.69704,36.509948 L 425.69704,38.509948 L 425.69704,40.509948 L 427.69704,40.509948 L 429.69704,40.509948 L 429.69704,42.509948 L 429.69704,44.509948 L 431.69704,44.509948 L 433.69704,44.509948 L 433.69704,48.509948 L 433.69704,52.509948 L 435.69704,52.509948 L 437.69704,52.509948 L 437.69704,56.509948 L 437.69704,60.509948 L 439.69704,60.509948 L 441.69704,60.509948 L 441.69704,64.509948 L 441.69704,68.509948 L 443.69704,68.509948 L 445.69704,68.509948 L 445.69704,76.509948 L 445.69704,84.509944 L 447.69704,84.509944 L 449.69704,84.509944 L 449.69704,162.50995 L 449.69704,240.50995 L 431.69704,240.50995 L 413.69704,240.50995 L 413.69704,224.50995 L 413.69704,208.50995 L 411.69704,208.50995 L 409.69704,208.50995 L 409.69704,212.50995 L 409.69704,216.50995 L 407.69704,216.50995 L 405.69704,216.50995 L 405.69704,218.50995 L 405.69704,220.50995 L 403.69704,220.50995 L 401.69704,220.50995 L 401.69704,222.50995 L 401.69704,224.50995 L 399.69704,224.50995 L 397.69704,224.50995 L 397.69704,226.50995 L 397.69704,228.50995 L 395.69704,228.50995 L 393.69704,228.50995 L 393.69704,230.50995 L 393.69704,232.50995 L 389.69704,232.50995 L 385.69704,232.50995 L 385.69704,234.50995 L 385.69704,236.50995 L 381.69704,236.50995 L 377.69704,236.50995 L 377.69704,238.50995 L 377.69704,240.50995 L 373.69704,240.50995 L 369.69704,240.50995 L 369.69704,242.50995 L 369.69704,244.50995 L 339.69704,244.50995 z M 347.69704,216.50995 L 365.69704,216.50995 L 365.69704,214.50995 L 365.69704,212.50995 L 371.69704,212.50995 L 377.69704,212.50995 L 377.69704,210.50995 L 377.69704,208.50995 L 381.69704,208.50995 L 385.69704,208.50995 L 385.69704,206.50995 L 385.69704,204.50995 L 387.69704,204.50995 L 389.69704,204.50995 L 389.69704,202.50995 L 389.69704,200.50995 L 391.69704,200.50995 L 393.69704,200.50995 L 393.69704,198.50995 L 393.69704,196.50995 L 395.69704,196.50995 L 397.69704,196.50995 L 397.69704,194.50995 L 397.69704,192.50995 L 399.69704,192.50995 L 401.69704,192.50995 L 401.69704,188.50995 L 401.69704,184.50995 L 403.69704,184.50995 L 405.69704,184.50995 L 405.69704,180.50995 L 405.69704,176.50995 L 407.69704,176.50995 L 409.69704,176.50995 L 409.69704,170.50995 L 409.69704,164.50995 L 411.69704,164.50995 L 413.69704,164.50995 L 413.69704,148.50995 L 413.69704,132.50995 L 377.69704,132.50995 L 341.69704,132.50995 L 341.69704,134.50995 L 341.69704,136.50995 L 333.69704,136.50995 L 325.69704,136.50995 L 325.69704,138.50995 L 325.69704,140.50995 L 321.69704,140.50995 L 317.69704,140.50995 L 317.69704,142.50995 L 317.69704,144.50995 L 315.69704,144.50995 L 313.69704,144.50995 L 313.69704,146.50995 L 313.69704,148.50995 L 311.69704,148.50995 L 309.69704,148.50995 L 309.69704,150.50995 L 309.69704,152.50995 L 307.69704,152.50995 L 305.69704,152.50995 L 305.69704,156.50995 L 305.69704,160.50995 L 303.69704,160.50995 L 301.69704,160.50995 L 301.69704,174.50995 L 301.69704,188.50995 L 303.69704,188.50995 L 305.69704,188.50995 L 305.69704,192.50995 L 305.69704,196.50995 L 307.69704,196.50995 L 309.69704,196.50995 L 309.69704,198.50995 L 309.69704,200.50995 L 311.69704,200.50995 L 313.69704,200.50995 L 313.69704,202.50995 L 313.69704,204.50995 L 315.69704,204.50995 L 317.69704,204.50995 L 317.69704,206.50995 L 317.69704,208.50995 L 319.69704,208.50995 L 321.69704,208.50995 L 321.69704,210.50995 L 321.69704,212.50995 L 325.69704,212.50995 L 329.69704,212.50995 L 329.69704,214.50995 L 329.69704,216.50995 L 347.69704,216.50995 z"
     id="path3251"
     style="fill:#000000" />
  <text
     x="24.811829"
     y="318.28113"
     id="text3253"
     xml:space="preserve"
     style="font-size:40px;font-style:normal;font-variant:normal;font-weight:normal;font-stretch:normal;fill:#000000;fill-opacity:1;stroke:none;stroke-width:1px;stroke-linecap:butt;stroke-linejoin:miter;stroke-opacity:1;font-family:DejaVu Sans;-inkscape-font-specification:DejaVu Sans"><tspan
       x="24.811829"
       y="318.28113"
       id="tspan3255">TrueType</tspan></text>
  <text
     x="286.18671"
     y="318.71832"
     id="text3257"
     xml:space="preserve"
     style="font-size:40px;font-style:normal;font-variant:normal;font-weight:normal;font-stretch:normal;fill:#000000;fill-opacity:1;stroke:none;stroke-width:1px;stroke-linecap:butt;stroke-linejoin:miter;stroke-opacity:1;font-family:DejaVu Sans;-inkscape-font-specification:DejaVu Sans"><tspan
       x="286.18671"
       y="318.71832"
       id="tspan3259">Bitmap</tspan></text>
</svg>
