
<svg version="1.1" xmlns="http://www.w3.org/2000/svg" viewBox="0 0 697.1818084716797 267.7273178100586">
  <!-- svg-source:excalidraw -->
  <defs>
    <style>
      @font-face {
        font-family: "Virgil";
        src: url("https://excalidraw.com/FG_Virgil.woff2");
      }
      @font-face {
        font-family: "Cascadia";
        src: url("https://excalidraw.com/Cascadia.woff2");
      }
    </style>
  </defs>
  <g stroke-opacity="0.1" fill-opacity="0.1" transform="translate(10 15.000038146972656) rotate(0 246.8181610107422 121.36363983154297)"><path d="M192.35339080908307 3.302157076579732 C212.68703131465645 -1.2466760545341105, 240.79039332869465 -0.3086034934772073, 263.8166142486386 0.14143965940859005 C286.8428351685825 0.5914828122943874, 308.9444465732796 2.4469069048271024, 330.51071632874664 6.002415993894516 C352.0769860842137 9.55792508296193, 374.9807496580853 14.490804170813924, 393.2142327814407 21.474494193813072 C411.44771590479615 28.45818421681222, 426.05291706649643 38.76535239745668, 439.9116150688791 47.90455613188941 C453.77031307126174 57.043759866322134, 467.9146237526027 65.90398186810819, 476.36642079573653 76.30971660040944 C484.81821783887034 86.7154513327107, 488.78219914999215 99.17860594209488, 490.6223973276818 110.33896452569692 C492.4625955053715 121.49932310929897, 491.1072680709804 132.15509740302886, 487.4076098618747 143.27186810202173 C483.70795165276894 154.3886388010146, 478.57281828641715 167.042953272438, 468.4244480730473 177.03958871965412 C458.27607785967746 187.03622416687023, 442.30145038207087 195.05632956325667, 426.51738858165567 203.25168078531834 C410.73332678124046 211.44703200738002, 393.6074989806265 220.10272647961244, 373.7200772705562 226.21169605202422 C353.83265556048593 232.320665624436, 329.3011115366343 237.11605488834726, 307.19285832123416 239.90549821978897 C285.084605105834 242.69494155123067, 263.56146060232186 243.68591414332187, 241.07055797815528 242.94835604067435 C218.5796553539887 242.21079793802684, 194.4039941133319 238.9711862685733, 172.24744257623468 235.48014960390384 C150.09089103913746 231.9891129392344, 127.43905009398398 227.88993567212296, 108.13124875557193 222.0021360526577 C88.82344741715988 216.11433643319245, 70.95582118366521 208.58212251590345, 56.40063454576236 200.15335188711225 C41.845447907859516 191.72458125832105, 29.699620342678365 181.81310018806926, 20.800128928154862 171.4295122799105 C11.900637513631358 161.04592437175177, 6.041621877449188 148.9905596649782, 3.0036860586213265 137.85182443815975 C-0.03424976020653503 126.71308921134128, -0.7644345591819786 116.13846741779909, 2.572514015187693 104.5971009189997 C5.909462589557364 93.05573442020031, 13.449019609358274 79.17495140345484, 23.025377504839355 68.60362544536338 C32.601735400320436 58.032299487271914, 45.248252071902584 49.176751536447235, 60.03066138807418 41.16914517045092 C74.81307070424577 33.1615388044546, 92.53955619338439 26.31391568527297, 111.71983340186893 20.557987249385462 C130.90011061035347 14.802058813497954, 145.64584827434723 9.507828327787022, 175.11232463898145 6.633574555125875 C204.57880100361567 3.759320782464729, 255.25492610937593 0.985002688390137, 288.5186915896743 3.312464613418584 C321.7824570699727 5.63992653844703, 375.513637977661 18.580808097915924, 374.69491752077164 20.598346105296557 M140.5442170503021 12.79093620740447 C158.15747556683468 6.374749231916911, 183.87347261223792 6.858128767555767, 206.4652368067769 4.435182717366715 C229.05700100131585 2.0122366671776626, 253.14924900769685 -2.0934353479420174, 276.09480221753597 -1.7467400937298407 C299.0403554273751 -1.4000448395176643, 323.22158458389407 1.452231236951417, 344.13855606581166 6.5153542426397735 C365.05552754772924 11.57847724832813, 384.5523010662424 20.636310356481715, 401.5966311090415 28.631997940400296 C418.64096115184054 36.62768552431888, 433.49953813050894 45.4546529522914, 446.4045363226061 54.48947974615126 C459.3095345147032 63.524306540011125, 470.93197318368885 72.13177613555213, 479.0266202616242 82.84095870355948 C487.12126733955955 93.55014127156683, 493.774804639517 107.54538008562986, 494.97241879021817 118.74457515419536 C496.1700329409193 129.94377022276086, 491.4615683188337 139.6900321389044, 486.212305165831 150.03612911495244 C480.96304201282834 160.3822260910005, 475.2733185047617 171.16556176473802, 463.47683987220216 180.82115701048366 C451.68036123964265 190.4767522562293, 432.55563054681994 199.67375200430502, 415.43343337047384 207.96970058942625 C398.31123619412773 216.2656491745475, 380.8135634797872 225.5062555260066, 360.7436568141254 230.5968485212111 C340.6737501484636 235.68744151641556, 317.6943917226127 237.0073588234409, 295.013993376503 238.51325856065307 C272.33359503039327 240.01915829786523, 246.87680823968464 239.99721114621116, 224.66126673746717 239.63224694448405 C202.4457252352497 239.26728274275695, 182.89271286385213 240.14426757736237, 161.72074436319826 236.3234733502904 C140.5487758625444 232.50267912321846, 115.91304151582221 223.27972000511534, 97.62945573354409 216.70748158205228 C79.34586995126597 210.13524315898923, 65.53194149843354 205.65128668762856, 52.019229669529494 196.89004281191205 C38.50651784062545 188.12879893619555, 25.58372910338101 175.1185364096655, 16.55318476011982 164.1400183277533 C7.522640416858627 153.1615002458411, 0.024468056952561934 142.29655610134722, -2.1640363900376656 131.0189343204388 C-4.3525408370278935 119.74131253953038, -2.095113303930134 107.65886411717239, 3.4221580781784553 96.47428764230281 C8.939429460287045 85.28971116743324, 20.45411397188272 73.61370079781086, 30.93959190261387 63.91147547122134 C41.42506983334502 54.20925014463182, 51.28493295710528 46.56993755424212, 66.33502566256536 38.26093568276568 C81.38511836802543 29.951933811289237, 108.94742462275062 18.55869920309777, 121.24014813537431 14.057464242362713 C133.532871647998 9.556229281627655, 136.27983845373427 10.924475406411434, 140.0913667383075 11.253525918355336 C143.90289502288073 11.58257643029924, 142.77061836998206 14.11911777713283, 144.1093178428136 16.031767314026126" stroke="none" stroke-width="0" fill="#fab005"></path><path d="M405.76034766218584 26.699770234254387 C425.23269156598957 32.153079837653685, 439.09456074036837 43.28438542228226, 452.0460776966466 52.60036489216833 C464.9975946529248 61.916344362054396, 476.6667599202618 71.76861910652563, 483.4694493998551 82.59564705357077 C490.27213887944833 93.42267500061591, 492.321756304537 106.30884500248108, 492.8622145742062 117.56253257443919 C493.40267284387534 128.8162201463973, 492.28499289334854 139.4378931093595, 486.71219901787003 150.11777248531945 C481.1394051423915 160.7976518612794, 470.96654441170654 171.77735654352958, 459.4254513213352 181.641808830199 C447.8843582309638 191.50626111686844, 434.4741300316362 201.06550036840156, 417.4656404756419 209.3044862053361 C400.45715091964763 217.54347204227065, 378.00434521593354 225.84223073605136, 357.3745139853694 231.07572385180626 C336.74468275480524 236.30921696756116, 315.78904913263005 239.1081496310711, 293.6866530922572 240.70544489986557 C271.5842570518843 242.30274016866005, 247.61601369988307 241.94344066275517, 224.7601377431323 240.6594954645731 C201.90426178638154 239.37555026639103, 177.95026261044893 237.07551438917773, 156.5513973517526 233.0017737107731 C135.15253209305627 228.9280330323685, 114.35442342591375 223.05506868150178, 96.36694619095425 216.21705139414536 C78.37946895599475 209.37903410678894, 61.9091354110207 201.03816890117125, 48.62653394199563 191.97366998663458 C35.343932472970565 182.9091710720979, 25.00121802818459 172.17675839439798, 16.671337376803848 161.8300579069253 C8.34145672542311 151.48335741945263, 0.5112436149600843 140.95795786209385, -1.3527499662887976 129.8934670617986 C-3.2167435475376793 118.82897626150334, 0.42692223132604123 106.50323686296193, 5.487375889310556 95.44311310515383 C10.54782954729507 84.38298934734573, 17.901378526181 73.17505382262966, 29.009971981618293 63.53272451495 C40.11856543705559 53.89039520727033, 56.09989375742727 45.84061048263658, 72.13893662193433 37.58913725907583 C88.1779794864414 29.337664035515072, 105.16903463716226 19.809790320030803, 125.24422916866067 14.02388517358547 C145.31942370015906 8.237980027140136, 169.9857259233229 5.463754787860305, 192.59010381092477 2.873706380403817 C215.19448169852666 0.2836579729473292, 238.00151412978641 -2.4112298619117922, 260.8704964942719 -1.5164052711534595 C283.73947885875737 -0.6215806803951267, 307.8230599982132 4.093448402712099, 329.80399799783766 8.242653924953814 C351.7849359974621 12.391859447195529, 378.0595850982471 18.74007680999623, 392.7561244920186 23.37882786229683 C407.4526638857901 28.017578914597433, 411.74331881886155 32.52491999153697, 417.98323436046655 36.075160238757434 C424.22314990207155 39.6254004859779, 432.75163307750427 43.7874773720352, 430.1956177416485 44.68026934561961 M389.6676298920763 21.294460984722704 C409.6911931632042 26.333029415350914, 420.51499256381317 37.15080026391146, 435.0409430321831 45.54587659760264 C449.5668935005531 53.94095293129383, 467.51628913354824 61.23111514995866, 476.82333270229606 71.66491898686981 C486.1303762710439 82.09872282378095, 488.623254791168 96.53565121175082, 490.88320444467 108.14869961906952 C493.14315409817203 119.76174802638822, 493.84509184625966 130.2126923347595, 490.38303062330806 141.34320943078203 C486.92096940035646 152.47372652680454, 479.8930478344661 165.08385102944942, 470.1108371069603 174.93180219520463 C460.3286263794545 184.77975336095983, 447.43049840623297 192.14020999209137, 431.6897662582731 200.43091642531328 C415.9490341103132 208.7216228585352, 395.19999123218577 218.0342433368187, 375.666444219201 224.6760407945361 C356.1328972062163 231.31783825225352, 336.0345178295825 237.5508236497401, 314.4884841803646 240.2817011716177 C292.9424505311467 243.0125786934953, 269.76945413711985 241.04227828127097, 246.39024232389337 241.06130592580172 C223.01103051066687 241.08033357033247, 196.07948179669748 242.815307075705, 174.21321330100557 240.39586703880218 C152.34694480531365 237.97642700189937, 134.27074672238015 233.46138829634563, 115.19263134974187 226.54466570438478 C96.11451597710361 219.62794311242394, 75.06205858956562 208.12677756984618, 59.744521065175945 198.89553148703715 C44.42698354078626 189.6642854042281, 32.38980328841312 180.72299139733687, 23.287406203403776 171.15718920753054 C14.185009118394433 161.5913870177242, 8.269361340947944 152.08338285650603, 5.130138555119885 141.50071834819911 C1.9909157692918265 130.9180538398922, 1.741347678758094 119.07568884031946, 4.452069488435427 107.66120215768893 C7.16279129811276 96.24671547505841, 12.92426682859537 83.68391704799177, 21.394469413183884 73.01379825241594 C29.864671997772398 62.3436794568401, 41.186745064558075 52.07537049980694, 55.27328499596652 43.6404893842339 C69.35982492737497 35.20560826866087, 86.44302565869343 28.66978506838971, 105.91370900163457 22.404511558977717 C125.38439234457572 16.139238049565723, 149.5656458413705 10.22738808099204, 172.09738505361338 6.048848327761931 C194.62912426585626 1.8703085745318235, 218.8999284590519 -2.0288132817291356, 241.10414427509187 -2.666726960402926 C263.3083600911318 -3.304640639076716, 283.85685339444854 -1.2439174764074585, 305.32267994985324 2.2213662557191896 C326.78850650525794 5.686649987845838, 356.1834558684487 15.093890442283191, 369.89910360752 18.124975432356962 C383.6147513465913 21.15606042243073, 385.46451401578565 19.759190771662876, 387.616566384281 20.40787619616181 C389.7686187527763 21.05656162066074, 385.29722904706193 20.164543126442975, 382.8114178184918 22.01708797935055" stroke="transparent" stroke-width="1" fill="none"></path></g><g stroke-opacity="0.1" fill-opacity="0.1" transform="translate(186.2727813720703 10.090934753417969) rotate(0 250.4545135498047 123.63636016845703)"><path d="M462.7874822494551 56.14774076240805 C478.31421688119536 64.30305818533714, 485.9941757606297 76.39988727308234, 492.1819082486928 87.73120962419522 C498.36964073675597 99.06253197530809, 499.9808838274382 112.74547921980201, 499.9138771778338 124.1356748690853 C499.8468705282294 135.5258705183686, 497.8641499250494 145.41269584974614, 491.7798683510664 156.07238351989506 C485.6955867770834 166.73207119004397, 475.6395561154366 178.17008091629873, 463.40818773393573 188.09380088997875 C451.17681935243485 198.01752086365877, 435.5754289174379 207.64406223182246, 418.39165806206097 215.61470336197527 C401.20788720668406 223.5853444921281, 380.9334931930537 230.99880529715367, 360.3055626016743 235.91764767089563 C339.6776320102949 240.8364900446376, 317.2489473068555 243.59000497214174, 294.6240745137844 245.12775760442702 C271.99920172071336 246.6655102367123, 247.52208136562166 246.57898766524917, 224.5563258432479 245.14416346460735 C201.59057032087412 243.70933926396552, 178.01379674862048 240.49659383883784, 156.82954137954175 236.51881240057605 C135.64528601046302 232.54103096231427, 115.34228327222505 228.08356304291584, 97.45079362877553 221.27747483503663 C79.55930398532601 214.47138662715741, 62.91395461812659 205.07191203004197, 49.480603518844674 195.6822831533007 C36.04725241956276 186.2926542765594, 24.721670473983664 175.57640133194886, 16.85068703308403 164.93970157458898 C8.979703592184393 154.3030018172291, 3.8739574884495385 142.7696009724471, 2.2547028734468597 131.8620846091414 C0.6354482584441807 120.95456824583567, 2.547254073633307 110.85128052048618, 7.135159343067954 99.4946033947547 C11.7230646125026 88.13792626902323, 19.379538083227224 74.32589290142663, 29.782134490054744 63.722021854752526 C40.184730896882265 53.118150808078425, 53.64859767357371 43.93722438351859, 69.55073778403309 35.8713771147101 C85.45287789449247 27.80552984590161, 104.90233224506727 20.610024563331514, 125.19497515281103 15.326938241901601 C145.48761806055478 10.043851920471688, 168.69920741214744 6.747885463287664, 191.3065952304956 4.172859186130623 C213.91398304884373 1.5978329089735817, 237.77505833097706 -0.4318161315963778, 260.83930206289983 -0.12321942104064476 C283.9035457948226 0.18537728951508825, 307.9451769350252 2.485341992765439, 329.69205762203217 6.024439449465021 C351.43893830903914 9.563536906164602, 372.04526382308865 14.549890862835685, 391.3205861849418 21.111365319156846 C410.595908546795 27.672839775478007, 429.12246281117524 34.74897045913563, 445.34399179315125 45.39328618739198 C461.56552077512725 56.03760191564833, 480.55154844053504 73.14950879352428, 488.649760076798 84.97725968869497 C496.7479717130609 96.80501058386567, 497.9017307687925 115.37778370154206, 493.93326161072883 116.35979155841616 M408.64519611843644 29.394060809044475 C427.1388435289381 35.11354980634694, 442.24834328615856 47.452230047085195, 455.36288297047537 57.28999516717239 C468.4774226547922 67.12776028725959, 479.9067136464822 78.38844857737716, 487.3324342243373 88.42065152956768 C494.7581548021924 98.4528544817582, 499.03722015227993 106.67366902851546, 499.91720643760596 117.48321288031546 C500.797192722932 128.29275673211546, 498.0424035895924 141.8257006565784, 492.61235193629363 153.2779146403677 C487.18230028299485 164.730128624157, 478.8378134732071 176.29071855549745, 467.3368965178131 186.19649678305132 C455.8359795624191 196.10227501060518, 440.06418084443493 204.93572118716259, 423.6068502039297 212.71258400569099 C407.14951956342446 220.48944682421939, 389.1814975245752 227.5318486005165, 368.59291267478164 232.85767369422177 C348.0043278249881 238.18349878792705, 323.4547309768303 242.2127921826634, 300.0753411051685 244.66753456792264 C276.69595123350666 247.12227695318188, 250.84936055417774 248.89447061142994, 228.3165734448105 247.58612800577725 C205.78378633544327 246.27778540012457, 185.8619583395806 240.64516941713956, 164.878618448965 236.81747893400646 C143.8952785583494 232.98978845087336, 121.3161068255889 230.99920732078502, 102.41653410111687 224.61998510697867 C83.51696137664483 218.24076289317233, 66.1566507510901 208.21159961716742, 51.481182102132806 198.54214565116843 C36.80571345317552 188.87269168516943, 22.275410413310407 177.4557933901036, 14.363722207373144 166.60326131098466 C6.452034001435881 155.75072923186573, 5.399028558071734 143.9709919514873, 4.011052866509232 133.4269531764549 C2.6230771749467294 122.88291440142251, 2.064774122763571 114.16951989137866, 6.03586805799813 103.33902866079035 C10.006961993232688 92.50853743020204, 17.703262061149935 78.71779850819851, 27.837616477916583 68.44400579292503 C37.97197089468323 58.170213077651546, 50.83870487871117 50.60656080180317, 66.841994558598 41.69627236914947 C82.84528423848484 32.78598393649577, 104.4081394761054 21.226774943584235, 123.85735455723761 14.98227519700282 C143.30656963836984 8.737775450421406, 161.1917882106265 6.46729965516338, 183.5372850453913 4.229273889660973 C205.88278188015607 1.9912481241585667, 234.3380403069221 0.8485989956530228, 257.9303355658264 1.5541206039883804 C281.5226308247307 2.259642212323738, 303.95915569176697 5.704030025259096, 325.0910565988171 8.462403539673119 C346.2229575058672 11.220777054087142, 370.6074317874675 14.77348694198213, 384.7217410081271 18.104361690472516 C398.8360502287867 21.4352364389629, 406.3623953528331 26.458024244850602, 409.77691192277484 28.44765203061543 C413.19142849271657 30.437279816380258, 407.9370469567498 28.488145598807147, 405.20884042777743 30.042128405061476" stroke="none" stroke-width="0" fill="#82c91e"></path><path d="M459.5074336079664 55.897050650675325 C475.0708003761397 64.07713481465993, 482.9544440665875 76.11423959492706, 489.5917926006309 86.57658985408248 C496.22914113467436 97.03894011323791, 498.84573128831494 107.08868294117822, 499.33152481222703 118.67115220560792 C499.8173183361391 130.25362147003764, 497.6904585969985 144.68392873895073, 492.5065537441036 156.07140544066073 C487.3226488912087 167.45888214237073, 479.799391266317 177.50571883104323, 468.22809569485764 186.9960124158679 C456.6568001233983 196.4863060006926, 439.92721516371046 205.50458510044177, 423.0787803153473 213.0131669496089 C406.2303454669841 220.521748798776, 388.00035191601455 226.9901631255068, 367.1374866046785 232.04750351087068 C346.2746212933424 237.10484389623457, 321.0699512438314 240.95371112507303, 297.9015884473307 243.35720926179212 C274.73322565083004 245.76070739851122, 250.50836115639106 247.35171253082382, 228.12730982567447 246.4684923311853 C205.74625849495789 245.5852721315468, 185.14105557666332 242.00647751048714, 163.61528046303118 238.05788806396112 C142.08950534939905 234.1092986174351, 117.67770245643963 229.4502014399402, 98.9726591438816 222.7769556520292 C80.26761583132357 216.10370986411817, 65.14205714217053 207.04335087294373, 51.38502058768296 198.01841333649503 C37.62798403319539 188.99347580004633, 24.66712409500331 179.03618563389892, 16.43043981695618 168.6273304333369 C8.193755538909054 158.2184752327749, 4.019537898448524 147.24666324651537, 1.9649149194002007 135.56528213312285 C-0.08970805964812234 123.88390101973032, -0.45443370968950614 109.69856270569034, 4.102701942666243 98.53904375298174 C8.659837595021994 87.37952480027315, 18.890914680595024 78.56676903376068, 29.307728833534696 68.60816841687128 C39.72454298647437 58.64956779998189, 51.17148428001584 47.44536920270421, 66.60358686030429 38.787440051645376 C82.03568944059273 30.129510900586546, 101.92972368763284 22.62169779201505, 121.90034431526539 16.660593510518297 C141.87096494289793 10.699489229021545, 164.20193288455016 5.705673108540644, 186.42731062609954 3.020814362664865 C208.65268836764892 0.3359556167890858, 232.34655332370377 0.29538432040500123, 255.25261076456175 0.5514410352636219 C278.15866820541976 0.8074977501222425, 301.94278389938165 1.3570611722878732, 323.86365527124747 4.557154651816589 C345.7845266431133 7.757248131345305, 367.0633744343738 13.32716749096884, 386.7778389957566 19.752001912435915 C406.4923035571394 26.17683633390299, 427.1466858715258 34.548222222678675, 442.1504426395442 43.10616118061904 C457.15419940756266 51.664100138559405, 469.54662395611945 63.291630923582574, 476.8003796038671 71.0996356600781 C484.05413525161475 78.90764039657364, 489.4185061693173 88.98498370790028, 485.6729765260302 89.95418959959224 M370.14328770920747 14.538974150582277 C391.04321561371177 17.828151102647173, 408.1614929811774 25.424654621963647, 424.7123847342966 32.955510162920206 C441.26327648741585 40.486365703876764, 457.93796280408 49.22515918300721, 469.44863822792274 59.724107396321635 C480.9593136517655 70.22305560963606, 488.5384815499175 84.41193889407118, 493.7764372773531 95.94919944280676 C499.01439300478876 107.48645999154233, 501.8289453095787 117.31826315584745, 500.87637259253665 128.9476706887351 C499.9237998754946 140.57707822162274, 495.86791086751526 155.3054092695056, 488.0610009751007 165.72564464013263 C480.2540910826861 176.14588001075967, 467.20576653786907 182.25138076157688, 454.03491323804906 191.46908291249736 C440.86405993822905 200.68678506341783, 426.06451011037893 213.0425119505939, 409.0358811761805 221.03185754565544 C392.0072522419821 229.02120314071698, 373.4011752375606 235.05154294206957, 351.86313963285863 239.4051564828666 C330.32510402815666 243.75877002366363, 302.8670275281629 245.58680506964689, 279.80766754796866 247.1535387904376 C256.7483075677744 248.72027251122833, 235.68278561670238 250.29941130573687, 213.506979751693 248.8055588076109 C191.33117388668362 247.31170630948495, 167.45667578715987 243.53862340584647, 146.75283235791238 238.19042380168185 C126.0489889286649 232.84222419751723, 106.97658992852458 224.6496117751924, 89.28391917620812 216.71636118262327 C71.59124842389166 208.78311059005415, 54.00963754421753 200.21231964777908, 40.596807844013654 190.59092024626705 C27.183978143809775 180.969520844755, 15.141805514495491 170.2247393156269, 8.806940974984826 158.98796477355108 C2.4720764354741602 147.75119023147528, 2.687309350886352 134.23824616153982, 2.587620606949656 123.17027299381219 C2.4879318630129603 112.10229982608455, 2.691781042805715 103.45637759924635, 8.208808511364651 92.58012576718524 C13.725835979923588 81.70387393512412, 24.04611570347671 67.8112967395221, 35.68978541830327 57.91276200144547 C47.33345513312984 48.01422726336884, 60.71916354475826 41.03392205762679, 78.07082680032403 33.188917338725446 C95.4224900558898 25.343912619824106, 119.1081791661972 15.734198634907987, 139.7997649516979 10.842733688037427 C160.49135073719862 5.951268741166868, 179.4967505066679 5.50719511136509, 202.22034151332826 3.8401276575020944 C224.94393251998864 2.173060203639099, 252.6015422253901 0.07869507903181017, 276.14131099166013 0.8403289648594523 C299.68107975793015 1.6019628506870944, 327.889971228476 6.323792399295938, 343.45895411094847 8.409930972467947 C359.02793699342095 10.496069545639957, 365.6990793364267 12.039908597782526, 369.55520828649514 13.357160403891513 C373.4113372365636 14.674412210000499, 368.9829573572276 14.238936510172943, 366.59572781135927 16.31344180912187" stroke="transparent" stroke-width="1" fill="none"></path></g><g transform="translate(11.045463562011719 13.999984741210938) rotate(0 247.7272186279297 120.9090805053711)"><path d="M42.48209072805548 54.06944201730829 C51.29329069929471 44.43445169678915, 70.97739365749528 37.43982763122046, 88.20100511726073 30.23125521449603 C105.42461657702619 23.0226827977716, 124.60953053849559 15.662464635260797, 145.8237594866482 10.818007516961714 C167.03798843480084 5.973550398662631, 192.6127841069441 2.5171899631201713, 215.48637880617645 1.1645125047015341 C238.3599735054088 -0.1881649537171033, 260.84908046811336 0.9439929024572891, 283.06532768204227 2.701942766449889 C305.2815748959712 4.459892630442489, 327.65558788901 7.472274698154237, 348.78386208975 11.712211688657135 C369.91213629049 15.952148679160032, 391.80120112442853 21.014717698001608, 409.8349728864823 28.141564709467275 C427.8687446485361 35.268411720932946, 444.43643018522243 45.05441887457041, 456.9864926620726 54.473293757451145 C469.5365551389227 63.89216864033188, 479.0027701828924 73.88868898110306, 485.13534774758307 84.6548140067517 C491.26792531227375 95.42093903240036, 493.7374991892096 107.58843831796844, 493.78195805021664 119.07004391134299 C493.8264169112237 130.55164950471755, 491.4154835498417 142.99486888636045, 485.4021009136254 153.54444756699905 C479.3887182774091 164.09402624763766, 469.6438527852543 172.73890973456503, 457.7016622329189 182.3675159951747 C445.75947168058354 191.99612225578437, 430.36773693755146 203.60036743974072, 413.74895759961316 211.31608513065711 C397.13017826167487 219.0318028215735, 378.5882599308722 224.1899257561785, 357.9889862052891 228.6618221406731 C337.389712479706 233.13371852516772, 312.9702221855539 235.9379573940535, 290.15331524611463 238.14746343762482 C267.33640830667537 240.35696948119613, 243.69229413726862 242.70954113096883, 221.08754456865364 241.91885840210097 C198.48279500003866 241.1281756732331, 175.56638987503706 237.70160987652534, 154.5248178344247 233.40336706441764 C133.48324579381236 229.10512425230993, 113.12462906723283 222.94887030470318, 94.83811232497948 216.1294015294548 C76.55159558272612 209.30993275420644, 58.374857984101496 201.4363788247147, 44.805717380904554 192.4865544129275 C31.23657677770761 183.53673000114028, 20.59221746658538 173.1547367246177, 13.423268705797824 162.43045505873152 C6.254319945010266 151.70617339284536, 2.8447289645414173 139.7717374835146, 1.7920248161792074 128.1408644176105 C0.7393206678169975 116.50999135170636, 1.9455446134088037 103.93160280225064, 7.107043815624564 92.64521666330678 C12.268543017840326 81.35883052436293, 16.836166362261274 71.91323932330505, 32.76102002947377 60.42254758394732 C48.685873696686265 48.93185584458959, 77.16209668281873 33.051997861400224, 102.65616581889955 23.701066227160396 C128.15023495498036 14.35013459292057, 183.29176505311708 2.9020896938488248, 185.72543484595872 4.3169577785083675 M76.61506355678557 31.617163429739406 C89.44747063569824 22.47417650850305, 108.61539633343516 16.323888563843294, 128.9668949539483 11.391364771982367 C149.31839357446142 6.4588409801214395, 175.84726053998008 3.679945628931594, 198.7240552798644 2.0220206785738384 C221.6008500197487 0.36409572821608305, 243.74984212383637 0.7341384129608622, 266.2276633932542 1.4438150698358356 C288.705484662672 2.153491726710809, 311.9034700740193 2.502293839546018, 333.5909828963713 6.2800806198236785 C355.2784957187233 10.057867400101339, 377.26440890553164 17.35744865043628, 396.3527403273662 24.1105357515018 C415.4410717492007 30.86362285256732, 434.8174639571113 38.337914534146144, 448.12097142737866 46.7986032262168 C461.42447889764605 55.25929191828745, 468.1961401566802 64.51323370707308, 476.17378514897064 74.87466790392574 C484.1514301412611 85.2361021007784, 493.2386167788265 97.40132768099588, 495.98684138112134 108.96720840733269 C498.7350659834162 120.5330891336695, 497.45287544189523 133.4260943498809, 492.66313276273956 144.26995226194663 C487.8733900835839 155.11381017401234, 478.37150141211004 164.40151047332512, 467.2483853061872 174.030355879727 C456.1252692002643 183.6592012861289, 441.7854012873088 193.02620097872904, 425.9244361272025 202.04302470035805 C410.06347096709624 211.05984842198706, 391.85525363696337 222.37160894288093, 372.08259434554964 228.1312982095011 C352.3099350541359 233.89098747612127, 330.10917624687204 234.3474060773766, 307.28848037872024 236.60116030007913 C284.46778451056844 238.85491452278166, 258.3440899270374 242.1295830270586, 235.15841913663868 241.6538235457162 C211.97274834624002 241.17806406437379, 189.45587309445617 237.53960951976092, 168.17445563632825 233.74660341202463 C146.89303817820033 229.95359730428834, 126.22903151618556 225.3669230790201, 107.46991438787123 218.8957868992985 C88.7107972595569 212.42465071957693, 70.11980854113996 203.63148575151985, 55.61975286644224 194.9197863336951 C41.11969719174452 186.20808691587035, 29.0671797783328 176.7878868371302, 20.46958033968491 166.62559039235006 C11.87198090103702 156.46329394756992, 7.363971489151291 144.87709128805048, 4.034156234554899 133.94600766501418 C0.704340979958507 123.01492404197788, -2.384411733919644 111.63607285068761, 0.4906888121065549 101.03908865413226 C3.3657893581327536 90.4421044575769, 10.806908722059712 80.57890087633137, 21.284759510712092 70.36410248568207 C31.762610299364475 60.149304095032754, 54.150853222628534 45.50963556043318, 63.357793544020836 39.75029831023639 C72.56473386541313 33.990961060039595, 73.79864499445901 36.53754661363007, 76.52640143906589 35.80807898450132 C79.25415788367278 35.07861135537257, 77.49247592389993 34.2310513335671, 79.72433221166216 35.373492535463896" stroke="#000000" stroke-width="1" fill="none"></path></g><g transform="translate(185.50006866455078 10) rotate(0 250.4545135498047 122.72725677490234)"><path d="M162.56169253990532 7.878654774544799 C181.97830985525653 2.099159507719544, 208.35029119540414 0.7008685513069798, 231.34078626756838 -0.1285914243719759 C254.3312813397326 -0.9580514000509316, 278.04567299594044 0.6895555343645348, 300.50466297289074 2.901894920471065 C322.96365294984105 5.114234306577595, 345.77489221703564 7.936554195301935, 366.09472612927004 13.145444892267207 C386.41456004150444 18.35433558923248, 405.51075969628675 26.123031473231755, 422.42366644629715 34.1552391022627 C439.33657319630754 42.18744673129364, 455.67107057560463 51.450272989614525, 467.57216662933234 61.33869066645286 C479.47326268306006 71.2271083432912, 488.24959420934124 82.48560038586221, 493.83024276866337 93.48574516329273 C499.4108913279855 104.48588994072325, 501.8725161919634 116.05439879960137, 501.05605798526494 127.339559331036 C500.23959977856646 138.6247198624706, 496.0905313664372 150.49967425670653, 488.93149352847246 161.1967083519005 C481.77245569050774 171.89374244709447, 471.22442058011205 182.29455494954297, 458.10183095747664 191.5217639021999 C444.9792413348412 200.74897285485682, 428.0907892345174 209.32495113450904, 410.19595579266 216.559962067842 C392.30112235080264 223.79497300117498, 371.61067773446933 230.15931548480455, 350.73283030633246 234.9318295021978 C329.8549828781956 239.70434351959102, 307.64624087198433 243.62345383770844, 284.92887122383866 245.1950461722014 C262.211501575693 246.76663850669433, 237.4189196253128 246.00054659593457, 214.4286124174584 244.36138350915544 C191.43830520960398 242.72222042237632, 168.20251858045563 240.17978084265184, 146.9870279767121 235.36006765152666 C125.7715373729686 230.5403544604015, 104.65583499259725 223.0810093181415, 87.13566879499729 215.44310436240443 C69.61550259739732 207.80519940666736, 54.49493788582718 199.0206642576224, 41.86603079111231 189.53263791710418 C29.23712369639744 180.04461157658596, 18.20470193710408 169.02207837360945, 11.36222622670806 158.51494631929518 C4.5197505163120395 148.0078142649809, 1.4861331170667333 137.74437653143292, 0.8111765287361834 126.4898455912185 C0.13621994040563357 115.23531465100407, 1.4639542467666802 102.0411937148629, 7.312486696724761 90.9877606780086 C13.161019146682843 79.9343276411543, 24.004937621784073 69.83002063210635, 35.90237122848467 60.16924737009271 C47.79980483518526 50.50847410807907, 61.82215027145622 40.95475276926674, 78.69708833692832 33.023121105926734 C95.57202640240041 25.091489442586727, 120.3553729858878 17.242899131323544, 137.15199962131726 12.579457390052667 C153.9486262567467 7.91601564878179, 169.5356204091801 6.215097857508678, 179.4768481495051 5.042470658301468 C189.41807588983008 3.869843459094258, 195.64946746710993 3.4752549477089665, 196.79936606326726 5.5436941948094045 M250.0910461802664 -1.4017829141359641 C271.9368902688172 -3.2590911001357483, 297.37927173155737 0.7697166197212417, 319.76468634504806 4.202196446850792 C342.15010095853876 7.634676273980341, 364.78609963504675 12.820074319385796, 384.40353386121046 19.193096048641337 C404.0209680873742 25.566117777896878, 422.14243096074006 33.96140806816769, 437.4692917020303 42.44032682238404 C452.7961524433206 50.91924557660038, 466.1315107051372 59.935916629983176, 476.364698308952 70.06660857393942 C486.59788591276674 80.19730051789566, 495.2657924236933 92.16697269856627, 498.86841732491894 103.2244784861215 C502.47104222614456 114.28198427367673, 500.76524925933455 125.06380301566537, 497.9804477163057 136.41164329927082 C495.1956461732769 147.75948358287627, 490.83250214237927 160.8562369300119, 482.1596080667458 171.31152018775416 C473.48671399111237 181.7668034454964, 460.31181149878097 190.4443525817743, 445.94308326250507 199.14334284572436 C431.57435502622917 207.84233310967443, 414.7280549058272 216.74668564323906, 395.9472386490903 223.50546177145452 C377.1664223923534 230.26423789966998, 355.21119226920035 236.03077788312996, 333.25818572208357 239.69599961501717 C311.3051791749668 243.3612213469044, 287.3206692804102 245.2112229701401, 264.2291993663896 245.49679216277775 C241.137729452369 245.7823613554154, 217.29202976748732 244.10290703191095, 194.70936623795996 241.40941477084303 C172.1267027084326 238.7159225097751, 149.23408695051958 234.6206430292089, 128.7332181892254 229.33583859637025 C108.2323494279312 224.0510341635316, 87.80886745027064 217.42058734472536, 71.70415367019478 209.70058817381118 C55.59943989011893 201.980589002897, 42.927888212712155 192.9833767235944, 32.10493550877024 183.01584357088515 C21.281982804828324 173.0483104181759, 11.99705008994734 161.14347827499486, 6.766437446543307 149.89538925755565 C1.5358248031392732 138.64730024011644, -0.7613675885085389 127.07344870986871, 0.7212596483460345 115.5273094662499 C2.2038868852006077 103.98117022263109, 8.112847413984369 91.23532284672673, 15.662200867670748 80.61855379584276 C23.211554321357127 70.00178474495878, 32.85363276413619 60.81392027522598, 46.01738037046431 51.82669516094609 C59.18112797679243 42.83947004666619, 76.62443266790935 33.64827216868569, 94.64468650563947 26.695203110163405 C112.6649403433696 19.74213405164112, 132.79034091436446 14.677517147639374, 154.13890339684502 10.10828080981237 C175.48746587932558 5.539044471985368, 206.25761760517653 0.7184003012094067, 222.73606140052277 -0.7202149167986107 C239.214505195869 -2.158830134806628, 248.40338338729828 0.8121974088579383, 253.0095661689224 1.4765895017642663 C257.6157489505465 2.140981594670594, 250.64690561636374 1.6297090898443827, 250.37315809026745 3.266137640639357" stroke="#000000" stroke-width="1" fill="none"></path></g><g transform="translate(258.51680088043213 73.40911865234375) rotate(0 95 28)"><text x="0" y="41" font-family="Virgil, Segoe UI Emoji" font-size="36px" fill="#000000" text-anchor="start" style="white-space: pre;" direction="ltr">JavaScript</text></g><g transform="translate(532.2813000679016 77.81822204589844) rotate(0 50.5 22)"><text x="0" y="32" font-family="Virgil, Segoe UI Emoji" font-size="28px" fill="#000000" text-anchor="start" style="white-space: pre;" direction="ltr">Node.js</text></g><g transform="translate(56.863670349121094 75.9090576171875) rotate(0 55.5 22)"><text x="0" y="32" font-family="Virgil, Segoe UI Emoji" font-size="28px" fill="#000000" text-anchor="start" style="white-space: pre;" direction="ltr">Browser</text></g><g transform="translate(285.59078216552734 143.18182373046875) rotate(0 67 16.5)"><text x="0" y="26" font-family="Helvetica, Segoe UI Emoji" font-size="28px" fill="#000000" text-anchor="start" style="white-space: pre;" direction="ltr">ECMA 262</text></g><g transform="translate(532.3182601928711 136.50006103515625) rotate(0 50 23.5)"><text x="50" y="18.5" font-family="Helvetica, Segoe UI Emoji" font-size="20px" fill="#000000" text-anchor="middle" style="white-space: pre;" direction="ltr">OpenJS</text><text x="50" y="42" font-family="Helvetica, Segoe UI Emoji" font-size="20px" fill="#000000" text-anchor="middle" style="white-space: pre;" direction="ltr">Foundation</text></g><g transform="translate(67.9546127319336 130.59085083007812) rotate(0 46 23.5)"><text x="46" y="18.5" font-family="Helvetica, Segoe UI Emoji" font-size="20px" fill="#000000" text-anchor="middle" style="white-space: pre;" direction="ltr">W3C,</text><text x="46" y="42" font-family="Helvetica, Segoe UI Emoji" font-size="20px" fill="#000000" text-anchor="middle" style="white-space: pre;" direction="ltr">WHATWG</text></g></svg>