<svg xmlns="http://www.w3.org/2000/svg" version="1.1" width="163" height="166" viewBox="-18 0 163 166">
  <circle fill="transparent" stroke="#286b10" stroke-width="7" cx="63.5" cy="81.5" r="78"></circle>
  <path fill="#9cc888" d="M67.5 81.2c-24.5 0-45.6-15.6-55-37.9C4.7 54 0 67.3 0 81.7c0 21 22.9 64 63.5 64.3 28.8.2 50.9-21.1 58.4-39 5.1-12.1 5.1-25.3 5.1-25.3 0-9.1-1.9-16.2-3.1-19.8-1.3-4-2.9-7.8-4.9-11.4-10.6 18.4-29.7 30.7-51.5 30.7z"></path>
  <path fill="#338640" d="M121.9 107c-2.6 1-39.9 14.6-67.8-7.5-3-2.4-25.7-20.9-22.4-45.8 1.8-13.3 10.1-22.3 11.9-24.2C53.6 19 65.8 17.3 65.7 17c-.2-.6-34.3 1.8-53.2 26.4C.8 58.7 0 76 0 81.7c0 5.8.8 24.3 14.5 40.9 2 2.5 20 23.5 49 23.4 24.5-.1 47.3-15.4 58.4-39z"></path>
  <style>@media(prefers-color-scheme:dark){circle{stroke:#fff;}path:nth-child(2){fill:#703ea0;}path:nth-child(3){fill:#ad58ff;}}</style>
</svg>
