<?xml version="1.0" standalone="no"?>
<!DOCTYPE svg PUBLIC "-//W3C//DTD SVG 20010904//EN"
 "http://www.w3.org/TR/2001/REC-SVG-20010904/DTD/svg10.dtd">
<svg version="1.0" xmlns="http://www.w3.org/2000/svg"
 width="664.000000pt" height="664.000000pt" viewBox="0 0 664.000000 664.000000"
 preserveAspectRatio="xMidYMid meet">
<g transform="translate(0.000000,664.000000) scale(0.100000,-0.100000)"
fill="#000000" stroke="none">
<path d="M3098 6635 c-2 -2 -37 -6 -78 -9 -42 -4 -89 -9 -105 -12 -17 -3 -50
-7 -75 -9 -25 -2 -45 -5 -45 -6 0 -1 -9 -3 -20 -5 -124 -18 -453 -104 -545
-141 -8 -4 -17 -7 -20 -7 -3 -1 -9 -4 -15 -7 -5 -4 -28 -12 -50 -19 -39 -12
-78 -29 -215 -92 -36 -16 -67 -30 -70 -30 -3 0 -9 -3 -15 -8 -5 -4 -37 -23
-70 -41 -33 -18 -73 -41 -90 -51 -16 -10 -42 -24 -57 -30 -16 -7 -28 -16 -28
-20 0 -4 -4 -8 -10 -8 -10 0 -253 -168 -286 -198 -10 -9 -32 -28 -49 -41 -176
-136 -434 -410 -577 -614 -32 -45 -62 -86 -66 -92 -12 -15 -152 -244 -152
-249 0 -2 -16 -32 -35 -65 -19 -34 -34 -64 -34 -66 0 -3 -13 -33 -29 -68 -48
-103 -58 -128 -97 -232 -77 -206 -144 -467 -171 -664 -3 -25 -8 -57 -10 -71
-26 -159 -25 -664 1 -802 3 -12 7 -44 10 -72 5 -53 12 -91 16 -91 1 0 3 -11 4
-25 2 -20 23 -121 40 -190 29 -119 82 -291 110 -355 7 -16 16 -41 20 -55 19
-65 149 -333 218 -450 358 -607 909 -1095 1533 -1355 49 -21 103 -43 119 -50
57 -24 343 -114 385 -121 8 -1 58 -11 110 -22 125 -28 146 -31 205 -37 28 -3
60 -8 72 -10 118 -26 648 -26 790 -1 10 2 41 7 68 10 96 14 144 22 235 42 14
3 34 7 45 9 95 20 378 109 460 145 11 5 49 21 85 36 95 40 354 174 362 188 4
6 8 8 8 4 0 -16 317 204 414 287 157 135 329 302 379 369 12 16 31 38 43 50
16 16 113 143 192 251 19 27 102 155 102 159 0 2 17 33 38 67 81 134 181 351
247 538 30 87 85 267 90 296 1 11 8 44 15 73 7 30 13 61 15 70 2 9 4 17 5 17
2 0 10 45 25 155 3 25 8 61 11 80 25 177 25 648 0 790 -3 14 -7 45 -10 70 -3
25 -8 56 -11 70 -3 14 -7 37 -10 53 -18 101 -19 106 -28 132 -3 11 -9 31 -11
45 -42 198 -114 398 -234 650 -104 221 -295 518 -434 675 -9 11 -37 42 -60 69
-109 125 -366 366 -426 400 -9 5 -26 18 -36 28 -11 10 -54 42 -96 70 -41 29
-76 56 -78 60 -2 4 -8 8 -14 8 -5 0 -28 13 -51 28 -23 16 -62 40 -87 53 -25
13 -47 27 -50 30 -4 5 -261 131 -325 159 -89 40 -135 58 -135 54 0 -2 -12 2
-27 9 -63 32 -345 109 -518 142 -16 3 -41 8 -55 10 -31 6 -92 15 -145 21 -22
2 -60 7 -85 10 -49 6 -526 14 -532 9z m522 -289 c19 -3 58 -8 85 -11 28 -4 57
-8 65 -10 8 -2 35 -7 60 -10 64 -9 163 -31 250 -55 41 -11 82 -22 90 -24 47
-12 157 -50 168 -59 6 -5 12 -7 12 -4 0 6 39 -9 117 -44 23 -10 45 -19 48 -19
10 0 236 -115 293 -148 29 -18 57 -32 62 -32 4 0 10 -3 12 -7 4 -11 85 -63 97
-63 5 0 11 -7 15 -15 3 -8 10 -15 16 -15 14 0 179 -127 290 -225 114 -100 274
-267 335 -350 17 -22 33 -42 36 -45 14 -12 132 -179 164 -232 103 -171 180
-318 230 -438 33 -80 86 -220 90 -240 2 -8 9 -31 15 -50 13 -40 37 -128 45
-162 21 -94 27 -126 30 -143 2 -11 6 -33 9 -50 10 -49 18 -98 22 -130 15 -146
19 -216 19 -390 0 -236 -7 -320 -45 -535 -32 -176 -101 -424 -150 -535 -5 -11
-21 -49 -36 -85 -24 -59 -148 -308 -177 -355 -79 -128 -218 -327 -256 -366
-30 -30 -61 -69 -56 -69 13 0 -286 -290 -355 -345 -41 -33 -80 -64 -86 -70
-11 -10 -133 -94 -233 -161 -68 -46 -313 -173 -411 -214 -87 -37 -320 -120
-320 -115 0 2 -24 -5 -52 -15 -29 -10 -70 -21 -92 -24 -21 -4 -42 -9 -47 -12
-5 -2 -21 -7 -36 -9 -16 -2 -66 -11 -113 -20 -46 -8 -105 -18 -130 -20 -25 -3
-72 -8 -105 -12 -76 -9 -492 -8 -565 1 -131 15 -167 20 -215 30 -43 8 -105 18
-107 16 -2 -1 -15 3 -29 8 -14 6 -43 13 -63 16 -21 4 -42 9 -47 12 -5 3 -20 7
-32 10 -77 13 -321 103 -465 170 -41 19 -75 34 -77 34 -6 0 -259 143 -269 152
-10 8 -36 26 -95 63 -102 65 -279 213 -411 345 -134 134 -170 174 -262 295 -4
6 -18 24 -31 40 -127 160 -290 455 -376 680 -24 61 -47 119 -52 130 -16 37
-79 269 -74 273 3 3 1 10 -4 16 -5 6 -12 27 -15 46 -3 19 -10 60 -16 90 -15
79 -18 95 -37 255 -15 128 -8 568 12 675 2 14 6 41 9 60 2 19 7 46 10 60 3 14
8 36 10 50 50 281 172 619 324 895 47 85 209 323 283 415 86 108 300 328 378
390 24 19 48 40 55 45 21 19 72 60 97 78 110 79 165 117 171 117 3 0 13 6 20
13 24 23 172 106 328 183 106 52 408 164 478 178 9 1 35 8 57 14 37 10 79 20
115 26 14 3 68 13 115 23 11 2 38 6 60 9 22 3 50 7 63 10 13 2 62 7 110 11 48
3 89 7 91 9 5 5 442 -4 481 -10z"/>
<path d="M3347 5963 c-2 -1 -32 -5 -67 -8 -82 -8 -100 -10 -180 -25 -36 -7
-74 -14 -85 -16 -11 -1 -30 -5 -42 -8 -13 -4 -31 -8 -40 -10 -30 -7 -107 -26
-123 -31 -61 -16 -229 -69 -295 -94 -132 -48 -150 -56 -156 -64 -3 -5 -10 -9
-15 -9 -29 -1 -253 -113 -379 -190 -233 -141 -451 -324 -605 -507 -25 -29 -55
-65 -68 -80 -12 -14 -39 -51 -60 -81 -20 -30 -40 -56 -44 -58 -5 -2 -8 -7 -8
-11 0 -4 -23 -46 -51 -92 -27 -46 -68 -122 -90 -169 -22 -47 -47 -97 -55 -112
-8 -15 -15 -31 -16 -35 -1 -10 0 -9 -39 -113 -34 -94 -96 -326 -104 -392 -3
-24 -7 -50 -10 -58 -5 -15 -9 -48 -22 -155 -10 -79 -10 -454 0 -530 15 -126
35 -243 57 -335 27 -118 25 -111 33 -130 3 -8 17 -51 30 -95 14 -44 39 -115
56 -159 40 -99 164 -350 181 -366 3 -3 21 -30 40 -60 117 -188 293 -387 480
-541 120 -100 158 -129 168 -129 6 0 12 -4 14 -8 3 -8 86 -68 123 -88 11 -6
49 -29 86 -51 87 -54 228 -124 336 -168 48 -20 97 -40 108 -44 40 -17 254 -78
304 -86 19 -3 37 -7 40 -9 3 -2 29 -7 56 -10 28 -4 78 -11 113 -17 68 -10 219
-20 317 -19 111 0 229 9 336 25 21 3 51 8 66 10 86 11 303 71 413 113 136 51
361 160 422 203 14 11 31 19 37 19 6 0 11 5 11 10 0 6 5 10 11 10 9 0 36 17
114 72 48 35 230 181 269 218 183 170 329 339 436 506 24 38 48 71 51 74 11 9
137 252 159 310 27 68 81 220 85 240 2 8 13 53 25 100 12 47 24 96 26 110 55
317 59 354 58 580 0 160 -5 240 -19 328 -3 17 -7 44 -9 60 -5 32 -16 101 -20
122 -2 8 -6 22 -9 30 -3 8 -11 40 -18 70 -11 52 -62 218 -76 250 -3 8 -7 17
-8 20 -13 54 -143 330 -154 330 -4 0 -22 -26 -41 -57 -19 -32 -37 -60 -40 -63
-3 -3 -14 -18 -24 -35 -28 -44 -124 -170 -165 -218 -96 -110 -324 -327 -369
-351 -10 -5 -21 -14 -27 -20 -37 -41 -394 -257 -442 -268 -5 -1 -32 -12 -60
-24 -61 -27 -245 -92 -276 -98 -12 -2 -42 -9 -67 -16 -25 -7 -53 -14 -63 -16
-10 -2 -26 -5 -35 -8 -9 -3 -42 -8 -72 -11 -30 -4 -57 -8 -60 -10 -16 -10
-170 -18 -325 -18 -190 0 -262 6 -380 29 -16 3 -39 7 -50 9 -46 6 -171 37
-190 46 -11 5 -31 11 -44 14 -75 14 -301 109 -434 182 -117 65 -122 68 -127
73 -3 3 -27 20 -55 38 -78 51 -103 75 -109 107 -3 17 -13 64 -21 105 -38 181
-38 409 1 595 20 94 66 249 76 253 4 2 8 10 8 17 0 14 49 127 77 180 9 17 21
39 27 50 6 11 13 22 16 25 3 3 12 18 21 34 90 159 313 401 477 516 102 72 275
165 367 199 33 12 69 26 80 31 23 10 107 35 148 44 32 7 36 22 7 22 -12 0 -22
-1 -23 -3z"/>
</g>
</svg>
